PathFileType	4	(X/Y/Z)	E:\Marcel_BSc\Marcel\30_01_2025\static_00.trc
DataRate	CameraRate	NumFrames	NumMarkers	Units	OrigDataRate	OrigDataStartFrame	OrigNumFrames
200.0	200.0	4	59	mm	200.0	119	158	
Frame#	Time	FHD			LBHD			RBHD			RBAR			LBAR			RASI			RSACR			LSACR			LASI			USACR			C7			CLAV			T10			RSHO			LSHO			LTHI1			LTHI3			LTHI2			LLFC			LMFC			LTIB1			LTIB2			LTIB3			LMMAL			LLMAL			LHEE			LMT1			LMT5			LMT3			RTHI1			RTHI2			RTHI3			RLFC			RMFC			RTIB1			RTIB3			RTIB2			RLMAL			RMMAL			RHEE			RMT5			RMT1			RMT3			LMEP			LLEP			LDUPA			LMUPA			LUUPA			LUL			LRAD			LRFIN			RUL			RRAD			RUFIN			RMEP			RLEP			RMUPA			RDUPA			RUUPA			
		X1	Y1	Z1	X2	Y2	Z2	X3	Y3	Z3	X4	Y4	Z4	X5	Y5	Z5	X6	Y6	Z6	X7	Y7	Z7	X8	Y8	Z8	X9	Y9	Z9	X10	Y10	Z10	X11	Y11	Z11	X12	Y12	Z12	X13	Y13	Z13	X14	Y14	Z14	X15	Y15	Z15	X16	Y16	Z16	X17	Y17	Z17	X18	Y18	Z18	X19	Y19	Z19	X20	Y20	Z20	X21	Y21	Z21	X22	Y22	Z22	X23	Y23	Z23	X24	Y24	Z24	X25	Y25	Z25	X26	Y26	Z26	X27	Y27	Z27	X28	Y28	Z28	X29	Y29	Z29	X30	Y30	Z30	X31	Y31	Z31	X32	Y32	Z32	X33	Y33	Z33	X34	Y34	Z34	X35	Y35	Z35	X36	Y36	Z36	X37	Y37	Z37	X38	Y38	Z38	X39	Y39	Z39	X40	Y40	Z40	X41	Y41	Z41	X42	Y42	Z42	X43	Y43	Z43	X44	Y44	Z44	X45	Y45	Z45	X46	Y46	Z46	X47	Y47	Z47	X48	Y48	Z48	X49	Y49	Z49	X50	Y50	Z50	X51	Y51	Z51	X52	Y52	Z52	X53	Y53	Z53	X54	Y54	Z54	X55	Y55	Z55	X56	Y56	Z56	X57	Y57	Z57	X58	Y58	Z58	X59	Y59	Z59	
119	0.585	101.60085	1817.4694	-581.78015	134.04442	1803.1945	-523.30524	130.31935	1801.0983	-652.50989	1237.7623	37.499004	-1766.9896	1248.0037	32.441376	457.97665	101.83666	1048.3003	-723.54614	310.88626	1098.0443	-621.40491	306.82773	1095.1637	-557.46429	96.352783	1038.8586	-458.72849	302.60635	1111.9557	-589.3573	279.07736	1567.2603	-583.98224	116.74947	1531.5511	-585.25653	282.67557	1257.6851	-577.71387	239.96765	1605.274	-734.70618	223.70627	1595.8051	-417.71948	229.05534	706.98621	-410.01447	258.50592	651.22565	-428.60477	211.51923	643.81439	-407.88852	221.80124	524.7655	-415.07904	174.92297	506.31888	-516.93774	222.48851	276.34763	-400.07538	269.64166	274.86981	-380.9339	242.96629	214.25107	-391.79953	268.12115	92.408691	-468.07413	287.0983	83.654968	-380.54379	344.06857	39.053585	-422.20612	115.27329	41.429028	-434.39929	145.15317	26.118645	-352.01917	122.68438	36.090141	-388.92563	208.19456	674.71991	-793.23608	255.22351	670.9826	-773.89276	226.48454	613.12659	-781.88	203.35301	529.40216	-778.39185	179.62267	508.74155	-682.06689	259.96051	277.72339	-811.53912	291.49969	219.50684	-814.01569	240.76933	214.42622	-809.93335	292.80289	75.454742	-813.67657	245.15518	71.11264	-736.37408	339.70151	30.546663	-765.19159	173.0876	26.146799	-862.66772	109.42446	42.539242	-788.43567	134.10289	40.162132	-828.96924	161.60014	1470.2667	-114.87514	234.36226	1509.7299	-116.52283	260.15918	1524.1003	-217.7543	227.44026	1561.7139	-220.08934	236.26511	1565.8123	-281.75827	171.46326	1563.5913	167.03568	141.90648	1628.3937	136.09053	168.11913	1657.546	235.59305	216.25337	1590.6217	-1342.2688	195.31734	1657.6384	-1308.9614	226.15947	1680.275	-1395.5055	178.32404	1484.3342	-1045.5321	247.87766	1539.0968	-1058.0741	246.69569	1577.2653	-910.80774	254.59174	1564.4087	-971.10284	281.46896	1542.2529	-899.26245
120	0.59	101.5893	1817.4651	-581.78198	134.03947	1803.1947	-523.33704	130.30901	1801.0909	-652.53528	1237.7644	37.500523	-1766.98	1248.0028	32.4422	457.98126	101.83532	1048.327	-723.54218	310.89615	1098.0485	-621.40887	306.85416	1095.1722	-557.45074	96.374184	1038.8647	-458.73083	302.63022	1111.9591	-589.34961	279.08224	1567.2646	-583.98499	116.74295	1531.5679	-585.26465	282.68445	1257.697	-577.74023	239.96512	1605.2806	-734.71222	223.71841	1595.807	-417.72202	229.05396	706.98962	-410.00681	258.52673	651.22491	-428.61905	211.51733	643.81519	-407.8866	221.81834	524.76501	-415.08472	174.91112	506.35696	-516.95447	222.48782	276.35223	-400.06192	269.6543	274.87021	-380.93103	242.97803	214.2457	-391.80099	268.11142	92.401436	-468.08322	287.0925	83.656105	-380.54428	343.98267	38.952412	-422.33987	115.27259	41.425964	-434.40158	145.15451	26.117323	-352.01535	122.68431	36.081928	-388.93091	208.40887	674.98065	-792.99908	255.23373	670.96912	-773.9068	226.46753	613.19159	-781.88593	203.35706	529.39722	-778.40643	179.63963	508.74548	-682.06818	259.98172	277.71753	-811.53418	291.59534	219.5085	-814.08087	240.7789	214.42232	-809.92804	292.81403	75.452164	-813.66492	245.15501	71.115791	-736.37671	339.67892	30.494019	-765.24896	173.11179	26.137596	-862.66925	109.41497	42.565903	-788.41772	134.08371	40.179455	-828.97583	161.59952	1470.2695	-114.87034	234.3605	1509.7339	-116.52858	260.16943	1524.1174	-217.74326	227.4368	1561.7313	-220.08075	236.29567	1565.8397	-281.74023	171.46547	1563.5713	167.03642	141.93758	1628.3969	136.10133	168.14137	1657.5405	235.61171	216.25432	1590.5977	-1342.2825	195.33301	1657.6217	-1308.9731	226.17072	1680.2684	-1395.5226	178.44147	1484.0923	-1045.568	247.87671	1539.0675	-1058.0757	246.70744	1577.2587	-910.82568	254.60387	1564.3932	-971.11383	281.49094	1542.249	-899.26825
121	0.595	101.58022	1817.4573	-581.78168	134.01508	1803.1896	-523.35437	130.3022	1801.0839	-652.55157	1237.7638	37.496971	-1766.9746	1247.994	32.429607	457.97922	101.85127	1048.3296	-723.50653	310.9072	1098.0398	-621.41583	306.86356	1095.1647	-557.44818	96.385155	1038.8746	-458.72931	302.63074	1111.9589	-589.3587	279.09259	1567.2651	-583.98218	116.74062	1531.5691	-585.27271	282.71048	1257.7148	-577.73407	239.95428	1605.2848	-734.73224	223.72667	1595.8137	-417.72595	229.07547	706.99518	-409.99249	258.54364	651.23541	-428.61191	211.53693	643.81781	-407.8912	221.82343	524.77356	-415.08676	174.92221	506.35971	-516.97382	222.44739	276.40771	-400.07874	269.66031	274.86853	-380.92804	242.96991	214.24536	-391.79605	268.08563	92.411964	-468.08151	287.09637	83.657143	-380.5434	343.91101	39.004299	-422.35016	115.27423	41.426197	-434.40408	145.15152	26.115528	-352.01688	122.67982	36.080811	-388.92474	208.42793	674.99243	-792.98505	255.22957	671.00238	-773.91595	226.49327	613.16675	-781.89758	203.38277	529.4079	-778.3927	179.6555	508.75293	-682.07733	259.98703	277.71478	-811.53235	291.6387	219.51952	-814.06439	240.78192	214.42696	-809.93176	292.8096	75.445023	-813.68134	245.16093	71.114052	-736.38477	339.80304	30.491354	-765.18121	173.11578	26.139523	-862.66156	109.43318	42.554615	-788.42755	134.08688	40.163246	-828.98486	161.59383	1470.282	-114.86588	234.34644	1509.7377	-116.52293	260.17636	1524.135	-217.74268	227.4333	1561.7363	-220.07483	236.30086	1565.8466	-281.73196	171.48784	1563.5583	167.04457	141.95833	1628.3896	136.10431	168.16771	1657.5156	235.6319	216.25272	1590.5732	-1342.2909	195.35522	1657.5953	-1308.9883	226.17908	1680.2389	-1395.5229	178.70718	1483.8994	-1045.8064	247.85052	1539.0344	-1058.1265	246.69902	1577.2521	-910.84393	254.61528	1564.3792	-971.13055	281.49512	1542.2439	-899.28314
122	0.6	101.55523	1817.4233	-581.83307	134.0088	1803.1929	-523.36926	130.28876	1801.0715	-652.56885	1237.7683	37.495335	-1766.9724	1247.9447	32.326	457.96774	101.85509	1048.3273	-723.49634	310.90546	1098.0409	-621.42432	306.86682	1095.1736	-557.4657	96.388184	1038.8735	-458.73294	302.65283	1111.9562	-589.34863	279.104	1567.2675	-583.9978	116.73659	1531.568	-585.27356	282.7218	1257.7196	-577.74097	239.93987	1605.2865	-734.74969	223.73946	1595.818	-417.72702	229.09129	706.99304	-409.99268	258.55078	651.24036	-428.60095	211.54868	643.823	-407.88968	221.84251	524.78094	-415.08633	174.92537	506.35928	-516.97345	222.5096	276.37323	-400.03647	269.67209	274.87149	-380.93387	242.98517	214.2439	-391.81497	268.07083	92.451134	-468.06201	287.10062	83.660652	-380.54297	343.92102	38.958763	-422.37698	115.27306	41.425034	-434.39795	145.14828	26.117323	-352.01611	122.67712	36.077671	-388.92517	208.43245	674.99524	-792.99408	255.26913	670.98938	-773.90045	226.53426	613.11627	-781.89801	203.39098	529.40668	-778.39618	179.66444	508.75342	-682.07477	259.98874	277.73187	-811.54248	291.59357	219.49823	-814.01288	240.79311	214.42677	-809.93707	292.80374	75.448074	-813.68103	245.15549	71.118523	-736.38385	339.89612	30.51758	-765.10144	173.11537	26.149239	-862.66296	109.42795	42.551224	-788.43158	134.09837	40.169983	-828.97321	161.56108	1470.2996	-114.86823	234.35167	1509.7261	-116.51077	260.18396	1524.1595	-217.72101	227.43042	1561.7461	-220.07478	236.28754	1565.829	-281.73215	171.4832	1563.5398	167.04283	141.98741	1628.3878	136.11813	168.19785	1657.4979	235.63725	216.25601	1590.553	-1342.3099	195.34853	1657.5764	-1309.0051	226.15654	1680.2168	-1395.5408	178.50157	1483.8402	-1045.6843	247.84357	1539.0251	-1058.1268	246.69118	1577.2402	-910.85846	254.59254	1564.3688	-971.15387	281.48004	1542.2345	-899.29633
